<?xml version="1.0" encoding="UTF-8"?>
<svg id="Layer_1" data-name="Layer 1" xmlns="http://www.w3.org/2000/svg" xmlns:xlink="http://www.w3.org/1999/xlink" viewBox="0 0 113.32 84.47">
  <defs>
    <style>
      .cls-1 {
        fill: url(#linear-gradient);
      }

      .cls-1, .cls-2, .cls-3, .cls-4, .cls-5 {
        stroke-width: 0px;
      }

      .cls-2 {
        fill: url(#linear-gradient-5);
      }

      .cls-3 {
        fill: url(#linear-gradient-2);
      }

      .cls-4 {
        fill: url(#linear-gradient-3);
      }

      .cls-5 {
        fill: url(#linear-gradient-4);
      }
    </style>
    <linearGradient id="linear-gradient" x1="5.13" y1="86.2" x2="81.18" y2="42.14" gradientUnits="userSpaceOnUse">
      <stop offset="0" stop-color="#19325c"/>
      <stop offset=".15" stop-color="#1c365e"/>
      <stop offset=".32" stop-color="#254264"/>
      <stop offset=".48" stop-color="#35576f"/>
      <stop offset=".65" stop-color="#4b747f"/>
      <stop offset=".82" stop-color="#689a93"/>
      <stop offset=".99" stop-color="#8bc8ab"/>
      <stop offset="1" stop-color="#8eccad"/>
    </linearGradient>
    <linearGradient id="linear-gradient-2" x1="-6.72" y1="65.76" x2="69.33" y2="21.7" xlink:href="#linear-gradient"/>
    <linearGradient id="linear-gradient-3" x1="-2.37" y1="73.27" x2="73.68" y2="29.21" xlink:href="#linear-gradient"/>
    <linearGradient id="linear-gradient-4" x1="-.89" y1="75.82" x2="75.16" y2="31.76" xlink:href="#linear-gradient"/>
    <linearGradient id="linear-gradient-5" x1="-3.58" y1="71.18" x2="72.47" y2="27.12" xlink:href="#linear-gradient"/>
  </defs>
  <path class="cls-1" d="M100.08,15.64c-2.3.9-4.28,2.33-6.11,3.95-2.84,2.52-5.21,5.43-7.28,8.73-1-1.35-1.95-2.64-2.92-3.91-1.55-2.04-3.55-1.87-4.74.42-4.78,9.19-9.55,18.39-14.33,27.58-1.49,2.87-2.97,5.75-4.53,8.59-.85,1.56-2.21,1.58-3.04.03-1.28-2.39-2.46-4.83-3.62-7.28-.15-.32-.11-.85.05-1.19.82-1.82,1.76-3.6,2.56-5.43.83-1.89,1.58-3.84,1.53-5.95-.07-2.88-2.99-4.76-5.68-3.69-1.51.6-2.21,1.86-2.81,3.26-1.87,4.37-3.68,8.83-6.73,12.5-1.54,1.85-1.28,3.25-.26,4.96.02.03.04.05.17.19,1.78-1.85,3.36-3.79,4.51-6.01,1.86-3.58,3.59-7.23,5.35-10.86.33-.68.75-1.18,1.56-.98.8.2.93.89.78,1.56-.2.93-.45,1.86-.82,2.73-2.46,5.76-5.42,11.23-9.69,15.88-.42.46-.46.88-.19,1.41.8,1.63,1.5,3.32,2.38,4.9,2.36,4.24,5.98,6.84,10.8,7.38,6.2.69,11.29-2.16,14.19-7.7,6.07-11.62,12.13-23.24,18.17-34.87,3.04-5.85,6.64-11.27,11.59-15.72.14-.13.23-.32.34-.49-.03-.08-.07-.16-.1-.24-.38.07-.78.09-1.14.23ZM83.97,33.18c-2.55,4.9-5.12,9.78-7.68,14.67-2.94,5.63-5.85,11.27-8.8,16.9-1.87,3.57-4.77,5.66-8.88,5.61-3.93-.04-6.76-2.06-8.68-5.4-.6-1.04-1.11-2.13-1.59-3.24-.13-.29-.09-.77.08-1.04.65-1.04,1.38-2.03,2.09-3.04.93,1.76,1.76,3.52,2.76,5.17.58.95,1.32,1.92,2.22,2.55,2.88,2.01,6.58,1.04,8.29-2.14,2.22-4.12,4.36-8.29,6.52-12.45,3.69-7.11,7.38-14.23,11.07-21.35.1-.19.21-.37.37-.65.84,1.14,1.68,2.21,2.41,3.34.15.23-.02.75-.18,1.07Z"/>
  <path class="cls-3" d="M44.52,70.37c-3.99.02-7.98,0-11.96,0-5.07,0-10.14,0-15.21,0-1.37,0-1.72-.6-1.09-1.81.25-.49.52-.98.78-1.47,6.58-12.7,13.16-25.41,19.74-38.11,1.12-2.15,2.23-4.31,3.42-6.62H15.98v-4c.31-.01.55-.03.79-.03,9.43,0,18.86,0,28.29,0,.19,0,.37,0,.56.02.6.09.91.4.66,1.02-.23.57-.48,1.13-.74,1.69-.41.9-.82,1.8-1.26,2.75,1.5-.57,2.85-1.19,4.26-1.59.94-.27,1.51-.76,1.83-1.63.52-1.4.51-2.79-.22-4.11-.93-1.69-2.42-2.33-4.31-2.33-11.1.01-22.2,0-33.3,0-.3,0-.6.03-.95.05v12.37h21.58c-.08.24-.11.36-.16.46-4.7,9.06-9.4,18.13-14.1,27.19-2.24,4.33-4.51,8.64-6.73,12.98-1.28,2.49-.54,5.35,1.83,6.58.99.52,2.23.77,3.36.78,8.56.06,17.13.03,25.69.03,2.09,0,4.18,0,5.73,0-.88-1.06-1.97-2.32-3.01-3.62-.35-.44-.7-.59-1.24-.58Z"/>
  <path class="cls-4" d="M38.18,34.76c-4.51,8.81-9.04,17.62-13.56,26.42-.85,1.67-1.7,3.34-2.57,5.06h20.75c-.56-1.21-1.12-2.31-1.56-3.45-.23-.61-.56-.75-1.16-.75-2.94.03-5.87.01-8.81.01-.73,0-1.46,0-2.3,0,.18-.39.3-.67.44-.93,2.73-5.26,5.47-10.5,8.17-15.77,1.73-3.38,3.31-6.83,5.08-10.18,2.78-5.26,8.25-7.79,13.74-6.49,4.82,1.15,8.7,5.64,9.44,11,.18,1.28.21,2.58.32,4.01.87-1.72,1.6-3.36,2.52-4.88.75-1.23.86-2.38.22-3.64-.06-.11-.08-.23-.12-.35-3.82-10.17-15.83-13.83-24.68-7.52-2.7,1.92-4.45,4.57-5.93,7.47Z"/>
  <path class="cls-5" d="M56.82,51.64c-.26.48-.5,1.17-.35,1.63.31.98.89,1.87,1.43,2.96,2.11-3.74,4.05-7.31,4.99-11.32.5-2.14.51-4.27-.01-6.41-1.44-5.94-8.63-9.26-14.05-5.96-2.48,1.51-3.89,3.78-5.06,6.32-1.23,2.69-2.33,5.48-3.95,7.93-1.27,1.92-1.04,3.48-.16,5.26.03.05.06.1.12.19.12-.06.2-.07.23-.11.21-.27.42-.54.62-.81,2.49-3.45,4.29-7.26,5.94-11.17.43-1.01.95-2.02,1.61-2.9,1.67-2.22,3.89-3.34,6.71-2.69,3.91.9,6.1,4.81,5.13,9.03-.66,2.84-1.81,5.49-3.21,8.05Z"/>
  <path class="cls-2" d="M101.77,10.31c-.63-.65-1.26-.41-1.82-.29-3.26.71-6.13,2.26-8.71,4.31-1.51,1.2-2.88,2.57-4.32,3.88-.28-.32-.58-.68-.89-1.02-2.06-2.25-2.79-2.25-4.91.07,1.9,2.3,3.76,4.57,5.68,6.9,4.05-5.76,8.73-10.59,14.97-13.86Z"/>
</svg>