<?xml version="1.0" encoding="UTF-8"?>
<svg id="Layer_1" data-name="Layer 1" xmlns="http://www.w3.org/2000/svg" xmlns:xlink="http://www.w3.org/1999/xlink" viewBox="0 0 296.6 84.47">
  <defs>
    <style>
      .cls-1 {
        fill: url(#linear-gradient);
      }

      .cls-1, .cls-2, .cls-3, .cls-4, .cls-5, .cls-6, .cls-7 {
        stroke-width: 0px;
      }

      .cls-8 {
        font-family: Arial-BoldItalicMT, Arial;
        font-size: 11.02px;
        font-style: italic;
        font-weight: 700;
      }

      .cls-8, .cls-6 {
        fill: #19325c;
      }

      .cls-9 {
        letter-spacing: -.04em;
      }

      .cls-2 {
        fill: url(#linear-gradient-5);
      }

      .cls-3 {
        fill: url(#linear-gradient-2);
      }

      .cls-4 {
        fill: url(#linear-gradient-3);
      }

      .cls-10 {
        letter-spacing: 0em;
      }

      .cls-5 {
        fill: #24718a;
      }

      .cls-7 {
        fill: url(#linear-gradient-4);
      }
    </style>
    <linearGradient id="linear-gradient" x1=".29" y1="85.21" x2="76.34" y2="41.14" gradientUnits="userSpaceOnUse">
      <stop offset="0" stop-color="#19325c"/>
      <stop offset=".15" stop-color="#1c365e"/>
      <stop offset=".32" stop-color="#254264"/>
      <stop offset=".48" stop-color="#35576f"/>
      <stop offset=".65" stop-color="#4b747f"/>
      <stop offset=".82" stop-color="#689a93"/>
      <stop offset=".99" stop-color="#8bc8ab"/>
      <stop offset="1" stop-color="#8eccad"/>
    </linearGradient>
    <linearGradient id="linear-gradient-2" x1="-11.56" y1="64.77" x2="64.49" y2="20.7" xlink:href="#linear-gradient"/>
    <linearGradient id="linear-gradient-3" x1="-7.21" y1="72.27" x2="68.84" y2="28.21" xlink:href="#linear-gradient"/>
    <linearGradient id="linear-gradient-4" x1="-5.73" y1="74.82" x2="70.32" y2="30.76" xlink:href="#linear-gradient"/>
    <linearGradient id="linear-gradient-5" x1="-8.42" y1="70.19" x2="67.63" y2="26.12" xlink:href="#linear-gradient"/>
  </defs>
  <g>
    <path class="cls-1" d="M95.24,14.64c-2.3.9-4.28,2.33-6.11,3.95-2.84,2.52-5.21,5.43-7.28,8.73-1-1.35-1.95-2.64-2.92-3.91-1.55-2.04-3.55-1.87-4.74.42-4.78,9.19-9.55,18.39-14.33,27.58-1.49,2.87-2.97,5.75-4.53,8.59-.85,1.56-2.21,1.58-3.04.03-1.28-2.39-2.46-4.83-3.62-7.28-.15-.32-.11-.85.05-1.19.82-1.82,1.76-3.6,2.56-5.43.83-1.89,1.58-3.84,1.53-5.95-.07-2.88-2.99-4.76-5.68-3.69-1.51.6-2.21,1.86-2.81,3.26-1.87,4.37-3.68,8.83-6.73,12.5-1.54,1.85-1.28,3.25-.26,4.96.02.03.04.05.17.19,1.78-1.85,3.36-3.79,4.51-6.01,1.86-3.58,3.59-7.23,5.35-10.86.33-.68.75-1.18,1.56-.98.8.2.93.89.78,1.56-.2.93-.45,1.86-.82,2.73-2.46,5.76-5.42,11.23-9.69,15.88-.42.46-.46.88-.19,1.41.8,1.63,1.5,3.32,2.38,4.9,2.36,4.24,5.98,6.84,10.8,7.38,6.2.69,11.29-2.16,14.19-7.7,6.07-11.62,12.13-23.24,18.17-34.87,3.04-5.85,6.64-11.27,11.59-15.72.14-.13.23-.32.34-.49-.03-.08-.07-.16-.1-.24-.38.07-.78.09-1.14.23ZM79.13,32.19c-2.55,4.9-5.12,9.78-7.68,14.67-2.94,5.63-5.85,11.27-8.8,16.9-1.87,3.57-4.77,5.66-8.88,5.61-3.93-.04-6.76-2.06-8.68-5.4-.6-1.04-1.11-2.13-1.59-3.24-.13-.29-.09-.77.08-1.04.65-1.04,1.38-2.03,2.09-3.04.93,1.76,1.76,3.52,2.76,5.17.58.95,1.32,1.92,2.22,2.55,2.88,2.01,6.58,1.04,8.29-2.14,2.22-4.12,4.36-8.29,6.52-12.45,3.69-7.11,7.38-14.23,11.07-21.35.1-.19.21-.37.37-.65.84,1.14,1.68,2.21,2.41,3.34.15.23-.02.75-.18,1.07Z"/>
    <path class="cls-3" d="M39.68,69.38c-3.99.02-7.98,0-11.96,0-5.07,0-10.14,0-15.21,0-1.37,0-1.72-.6-1.09-1.81.25-.49.52-.98.78-1.47,6.58-12.7,13.16-25.41,19.74-38.11,1.12-2.15,2.23-4.31,3.42-6.62H11.14v-4c.31-.01.55-.03.79-.03,9.43,0,18.86,0,28.29,0,.19,0,.37,0,.56.02.6.09.91.4.66,1.02-.23.57-.48,1.13-.74,1.69-.41.9-.82,1.8-1.26,2.75,1.5-.57,2.85-1.19,4.26-1.59.94-.27,1.51-.76,1.83-1.63.52-1.4.51-2.79-.22-4.11-.93-1.69-2.42-2.33-4.31-2.33-11.1.01-22.2,0-33.3,0-.3,0-.6.03-.95.05v12.37h21.58c-.08.24-.11.36-.16.46-4.7,9.06-9.4,18.13-14.1,27.19-2.24,4.33-4.51,8.64-6.73,12.98-1.28,2.49-.54,5.35,1.83,6.58.99.52,2.23.77,3.36.78,8.56.06,17.13.03,25.69.03,2.09,0,4.18,0,5.73,0-.88-1.06-1.97-2.32-3.01-3.62-.35-.44-.7-.59-1.24-.58Z"/>
    <path class="cls-4" d="M33.34,33.76c-4.51,8.81-9.04,17.62-13.56,26.42-.85,1.67-1.7,3.34-2.57,5.06h20.75c-.56-1.21-1.12-2.31-1.56-3.45-.23-.61-.56-.75-1.16-.75-2.94.03-5.87.01-8.81.01-.73,0-1.46,0-2.3,0,.18-.39.3-.67.44-.93,2.73-5.26,5.47-10.5,8.17-15.77,1.73-3.38,3.31-6.83,5.08-10.18,2.78-5.26,8.25-7.79,13.74-6.49,4.82,1.15,8.7,5.64,9.44,11,.18,1.28.21,2.58.32,4.01.87-1.72,1.6-3.36,2.52-4.88.75-1.23.86-2.38.22-3.64-.06-.11-.08-.23-.12-.35-3.82-10.17-15.83-13.83-24.68-7.52-2.7,1.92-4.45,4.57-5.93,7.47Z"/>
    <path class="cls-7" d="M51.98,50.64c-.26.48-.5,1.17-.35,1.63.31.98.89,1.87,1.43,2.96,2.11-3.74,4.05-7.31,4.99-11.32.5-2.14.51-4.27-.01-6.41-1.44-5.94-8.63-9.26-14.05-5.96-2.48,1.51-3.89,3.78-5.06,6.32-1.23,2.69-2.33,5.48-3.95,7.93-1.27,1.92-1.04,3.48-.16,5.26.03.05.06.1.12.19.12-.06.2-.07.23-.11.21-.27.42-.54.62-.81,2.49-3.45,4.29-7.26,5.94-11.17.43-1.01.95-2.02,1.61-2.9,1.67-2.22,3.89-3.34,6.71-2.69,3.91.9,6.1,4.81,5.13,9.03-.66,2.84-1.81,5.49-3.21,8.05Z"/>
    <path class="cls-2" d="M96.93,9.32c-.63-.65-1.26-.41-1.82-.29-3.26.71-6.13,2.26-8.71,4.31-1.51,1.2-2.88,2.57-4.32,3.88-.28-.32-.58-.68-.89-1.02-2.06-2.25-2.79-2.25-4.91.07,1.9,2.3,3.76,4.57,5.68,6.9,4.05-5.76,8.73-10.59,14.97-13.86Z"/>
  </g>
  <g>
    <g>
      <path class="cls-6" d="M105,49.1v-5.84l16.83-20.79h-14.93v-5.42h23.45v5.03l-17.55,21.62h18.23v5.4h-26.03Z"/>
      <path class="cls-6" d="M148.52,41.71l6.12,1.03c-.79,2.24-2.03,3.95-3.73,5.13-1.7,1.17-3.82,1.76-6.37,1.76-4.04,0-7.02-1.32-8.96-3.96-1.53-2.11-2.29-4.78-2.29-8,0-3.85,1.01-6.86,3.02-9.04,2.01-2.18,4.55-3.27,7.63-3.27,3.45,0,6.18,1.14,8.18,3.42,2,2.28,2.95,5.77,2.86,10.48h-15.39c.04,1.82.54,3.24,1.49,4.25.95,1.01,2.13,1.52,3.54,1.52.96,0,1.77-.26,2.43-.79.66-.53,1.15-1.37,1.49-2.54ZM148.87,35.5c-.04-1.78-.5-3.13-1.38-4.06-.87-.92-1.94-1.39-3.19-1.39-1.34,0-2.45.49-3.32,1.46-.87.98-1.3,2.3-1.29,3.98h9.18Z"/>
      <path class="cls-6" d="M170.62,25.88v4.9h-4.2v9.36c0,1.9.04,3,.12,3.31.08.31.26.57.55.78.28.2.63.31,1.04.31.57,0,1.39-.2,2.47-.59l.52,4.77c-1.43.61-3.05.92-4.85.92-1.11,0-2.11-.19-2.99-.56-.89-.37-1.54-.85-1.96-1.44s-.7-1.39-.86-2.39c-.13-.71-.2-2.16-.2-4.33v-10.12h-2.82v-4.9h2.82v-4.61l6.16-3.58v8.2h4.2Z"/>
    </g>
    <g>
      <path class="cls-5" d="M183.1,49.1l-11.45-32.05h7.02l8.11,23.72,7.85-23.72h6.86l-11.48,32.05h-6.91Z"/>
      <path class="cls-5" d="M215.71,41.71l6.12,1.03c-.79,2.24-2.03,3.95-3.73,5.13-1.7,1.17-3.82,1.76-6.37,1.76-4.04,0-7.02-1.32-8.96-3.96-1.53-2.11-2.3-4.78-2.3-8,0-3.85,1.01-6.86,3.02-9.04,2.01-2.18,4.55-3.27,7.63-3.27,3.45,0,6.18,1.14,8.17,3.42,2,2.28,2.95,5.77,2.86,10.48h-15.39c.04,1.82.54,3.24,1.49,4.25.95,1.01,2.13,1.52,3.54,1.52.96,0,1.77-.26,2.43-.79.66-.53,1.15-1.37,1.49-2.54ZM216.06,35.5c-.04-1.78-.5-3.13-1.38-4.06-.87-.92-1.94-1.39-3.19-1.39-1.34,0-2.45.49-3.32,1.46-.87.98-1.3,2.3-1.29,3.98h9.18Z"/>
      <path class="cls-5" d="M233.05,49.1h-6.14v-23.21h5.7v3.3c.98-1.56,1.85-2.59,2.63-3.08.78-.5,1.66-.74,2.66-.74,1.4,0,2.75.39,4.04,1.16l-1.9,5.36c-1.04-.67-2-1.01-2.89-1.01s-1.59.24-2.19.71c-.6.47-1.07,1.33-1.41,2.57-.34,1.24-.51,3.83-.51,7.78v7.17Z"/>
      <path class="cls-5" d="M244.59,22.74v-5.68h6.14v5.68h-6.14ZM244.59,49.1v-23.21h6.14v23.21h-6.14Z"/>
      <path class="cls-5" d="M254.34,25.88h3.41v-1.75c0-1.95.21-3.41.62-4.37s1.18-1.75,2.3-2.35c1.11-.6,2.52-.91,4.23-.91s3.46.26,5.14.79l-.83,4.28c-.98-.23-1.92-.35-2.82-.35s-1.53.21-1.91.62-.58,1.21-.58,2.39v1.64h4.59v4.83h-4.59v18.38h-6.14v-18.38h-3.41v-4.83Z"/>
      <path class="cls-5" d="M269.03,25.88h6.54l5.55,16.48,5.42-16.48h6.36l-8.2,22.34-2.57,7.35c-.54,1.36-1.05,2.39-1.54,3.1-.49.71-1.05,1.29-1.68,1.74s-1.41.79-2.34,1.04-1.97.37-3.14.37-2.34-.12-3.47-.37l-.55-4.81c.96.19,1.83.29,2.6.29,1.43,0,2.48-.42,3.17-1.26.68-.84,1.21-1.91,1.57-3.2l-7.73-26.59Z"/>
    </g>
    <text class="cls-8" transform="translate(103.49 61.82)"><tspan x="0" y="0">Secure Identity &amp; </tspan><tspan class="cls-9" x="93.08" y="0">V</tspan><tspan class="cls-10" x="100.02" y="0">erification...</tspan></text>
  </g>
</svg>