<?xml version="1.0" encoding="UTF-8"?>
<svg id="Layer_1" data-name="Layer 1" xmlns="http://www.w3.org/2000/svg" xmlns:xlink="http://www.w3.org/1999/xlink" viewBox="0 0 183.4 162.57">
  <defs>
    <style>
      .cls-1 {
        fill: url(#linear-gradient);
      }

      .cls-1, .cls-2, .cls-3, .cls-4, .cls-5, .cls-6, .cls-7 {
        stroke-width: 0px;
      }

      .cls-2 {
        fill: url(#linear-gradient-5);
      }

      .cls-3 {
        fill: url(#linear-gradient-2);
      }

      .cls-8 {
        font-family: Arial-BoldItalicMT, Arial;
        font-size: 10px;
        font-style: italic;
        font-weight: 700;
      }

      .cls-8, .cls-6 {
        fill: #19325c;
      }

      .cls-4 {
        fill: url(#linear-gradient-3);
      }

      .cls-5 {
        fill: #24718a;
      }

      .cls-9 {
        letter-spacing: -.04em;
      }

      .cls-7 {
        fill: url(#linear-gradient-4);
      }
    </style>
    <linearGradient id="linear-gradient" x1="31.95" y1="115.73" x2="137.46" y2="54.59" gradientUnits="userSpaceOnUse">
      <stop offset="0" stop-color="#19325c"/>
      <stop offset=".15" stop-color="#1c365e"/>
      <stop offset=".32" stop-color="#254264"/>
      <stop offset=".48" stop-color="#35576f"/>
      <stop offset=".65" stop-color="#4b747f"/>
      <stop offset=".82" stop-color="#689a93"/>
      <stop offset=".99" stop-color="#8bc8ab"/>
      <stop offset="1" stop-color="#8eccad"/>
    </linearGradient>
    <linearGradient id="linear-gradient-2" x1="15.52" y1="87.37" x2="121.03" y2="26.24" xlink:href="#linear-gradient"/>
    <linearGradient id="linear-gradient-3" x1="21.56" y1="97.78" x2="127.07" y2="36.65" xlink:href="#linear-gradient"/>
    <linearGradient id="linear-gradient-4" x1="23.61" y1="101.32" x2="129.12" y2="40.19" xlink:href="#linear-gradient"/>
    <linearGradient id="linear-gradient-5" x1="19.88" y1="94.89" x2="125.39" y2="33.75" xlink:href="#linear-gradient"/>
  </defs>
  <g>
    <path class="cls-1" d="M163.69,17.82c-3.19,1.25-5.93,3.23-8.48,5.48-3.93,3.49-7.23,7.53-10.1,12.11-1.39-1.87-2.7-3.66-4.05-5.43-2.15-2.82-4.92-2.59-6.57.58-6.64,12.75-13.25,25.51-19.89,38.27-2.07,3.99-4.12,7.98-6.28,11.92-1.18,2.16-3.07,2.19-4.21.05-1.77-3.32-3.41-6.71-5.03-10.1-.21-.45-.15-1.18.07-1.65,1.14-2.53,2.44-4.99,3.56-7.54,1.15-2.63,2.2-5.32,2.13-8.26-.09-4-4.15-6.6-7.88-5.13-2.1.83-3.06,2.58-3.89,4.52-2.59,6.06-5.11,12.25-9.34,17.34-2.14,2.57-1.78,4.51-.36,6.88.02.04.06.06.24.27,2.47-2.56,4.66-5.26,6.26-8.33,2.58-4.96,4.98-10.03,7.43-15.06.46-.95,1.04-1.64,2.16-1.36,1.11.28,1.29,1.24,1.09,2.16-.28,1.29-.63,2.59-1.14,3.79-3.42,7.99-7.52,15.57-13.45,22.03-.59.64-.63,1.21-.27,1.96,1.11,2.26,2.08,4.6,3.31,6.8,3.28,5.88,8.29,9.49,14.99,10.24,8.6.96,15.66-3,19.68-10.68,8.43-16.11,16.83-32.24,25.21-48.38,4.22-8.11,9.22-15.64,16.07-21.8.2-.18.32-.45.48-.68-.05-.11-.09-.23-.14-.34-.53.1-1.09.12-1.58.31ZM141.34,42.17c-3.53,6.79-7.1,13.57-10.65,20.35-4.08,7.81-8.12,15.64-12.21,23.44-2.6,4.95-6.62,7.85-12.32,7.79-5.45-.06-9.38-2.86-12.04-7.5-.83-1.44-1.54-2.96-2.21-4.49-.17-.4-.13-1.07.11-1.44.9-1.44,1.92-2.81,2.9-4.22,1.29,2.44,2.44,4.89,3.83,7.18.81,1.32,1.83,2.67,3.08,3.54,3.99,2.79,9.13,1.44,11.51-2.97,3.08-5.72,6.05-11.51,9.05-17.28,5.13-9.87,10.24-19.74,15.35-29.62.14-.26.29-.52.52-.91,1.17,1.59,2.33,3.07,3.34,4.64.2.31-.03,1.04-.25,1.48Z"/>
    <path class="cls-3" d="M86.61,93.77c-5.53.03-11.07.01-16.6.01-7.03,0-14.07,0-21.1,0-1.89,0-2.39-.83-1.52-2.52.35-.69.72-1.36,1.08-2.04,9.13-17.63,18.26-35.25,27.39-52.88,1.55-2.99,3.09-5.98,4.75-9.19h-33.61v-5.55c.43-.02.76-.05,1.1-.05,13.08,0,26.16,0,39.25.01.26,0,.52-.01.77.02.84.12,1.26.55.91,1.42-.32.79-.67,1.57-1.02,2.35-.57,1.25-1.14,2.5-1.74,3.82,2.08-.79,3.95-1.65,5.9-2.21,1.3-.37,2.1-1.06,2.54-2.27.72-1.95.71-3.87-.31-5.7-1.3-2.34-3.36-3.24-5.98-3.23-15.4.02-30.8,0-46.19,0-.42,0-.83.05-1.31.07v17.16h29.94c-.12.34-.15.5-.22.65-6.52,12.57-13.04,25.15-19.56,37.72-3.11,6-6.26,11.99-9.34,18-1.77,3.46-.75,7.43,2.53,9.13,1.38.72,3.1,1.07,4.67,1.08,11.88.09,23.76.04,35.64.04,2.9,0,5.8,0,7.95,0-1.23-1.47-2.74-3.21-4.17-5.03-.48-.61-.97-.81-1.73-.81Z"/>
    <path class="cls-4" d="M77.81,44.35c-6.25,12.23-12.54,24.44-18.81,36.66-1.19,2.31-2.36,4.63-3.57,7.02h28.79c-.77-1.68-1.55-3.2-2.17-4.79-.33-.84-.78-1.04-1.62-1.04-4.07.04-8.15.02-12.22.02-1.01,0-2.03,0-3.19,0,.25-.54.42-.93.61-1.29,3.78-7.29,7.6-14.57,11.34-21.88,2.4-4.68,4.6-9.47,7.05-14.12,3.86-7.3,11.45-10.81,19.06-9,6.69,1.59,12.07,7.82,13.1,15.26.25,1.78.3,3.58.45,5.56,1.21-2.38,2.22-4.66,3.49-6.77,1.03-1.71,1.2-3.31.3-5.05-.08-.15-.11-.32-.17-.48-5.3-14.11-21.97-19.18-34.24-10.44-3.74,2.67-6.17,6.35-8.22,10.36Z"/>
    <path class="cls-7" d="M103.68,67.77c-.36.66-.69,1.62-.48,2.26.43,1.36,1.23,2.6,1.99,4.1,2.93-5.19,5.62-10.14,6.92-15.7.69-2.97.71-5.92-.01-8.9-1.99-8.24-11.97-12.85-19.49-8.27-3.44,2.1-5.4,5.24-7.02,8.77-1.71,3.73-3.24,7.61-5.48,11.01-1.76,2.67-1.45,4.83-.22,7.3.04.08.09.14.16.26.17-.08.27-.1.32-.16.29-.37.58-.74.86-1.12,3.45-4.79,5.96-10.08,8.24-15.49.59-1.41,1.32-2.8,2.23-4.02,2.32-3.08,5.4-4.64,9.31-3.74,5.42,1.25,8.47,6.67,7.11,12.53-.91,3.94-2.5,7.62-4.45,11.17Z"/>
    <path class="cls-2" d="M166.04,10.44c-.87-.9-1.75-.57-2.52-.4-4.52.99-8.5,3.13-12.08,5.98-2.09,1.67-3.99,3.57-5.99,5.39-.39-.45-.8-.94-1.23-1.41-2.86-3.12-3.87-3.12-6.81.09,2.63,3.2,5.22,6.34,7.88,9.57,5.62-7.99,12.11-14.7,20.76-19.23Z"/>
  </g>
  <g>
    <g>
      <path class="cls-6" d="M9.88,142.27v-5.3l15.27-18.86h-13.55v-4.92h21.28v4.56l-15.93,19.62h16.54v4.9H9.88Z"/>
      <path class="cls-6" d="M49.37,135.57l5.55.93c-.71,2.04-1.84,3.59-3.38,4.65-1.54,1.07-3.47,1.6-5.78,1.6-3.66,0-6.37-1.2-8.13-3.59-1.39-1.92-2.08-4.34-2.08-7.26,0-3.49.91-6.22,2.74-8.2,1.82-1.98,4.13-2.96,6.92-2.96,3.13,0,5.61,1.03,7.42,3.1,1.81,2.07,2.68,5.24,2.6,9.51h-13.96c.04,1.65.49,2.94,1.35,3.86.86.92,1.93,1.38,3.21,1.38.87,0,1.61-.24,2.2-.71.59-.48,1.04-1.24,1.35-2.3ZM49.69,129.94c-.04-1.61-.46-2.84-1.25-3.68-.79-.84-1.76-1.26-2.9-1.26-1.22,0-2.22.44-3.02,1.33-.79.89-1.18,2.09-1.17,3.61h8.33Z"/>
      <path class="cls-6" d="M69.43,121.21v4.44h-3.81v8.49c0,1.72.04,2.72.11,3,.07.29.24.52.5.71.26.18.57.28.94.28.52,0,1.26-.18,2.24-.54l.48,4.32c-1.3.56-2.76.83-4.4.83-1,0-1.91-.17-2.72-.5-.81-.34-1.4-.77-1.78-1.31s-.64-1.26-.78-2.17c-.12-.65-.18-1.96-.18-3.93v-9.18h-2.56v-4.44h2.56v-4.19l5.59-3.25v7.44h3.81Z"/>
    </g>
    <g>
      <path class="cls-5" d="M80.75,142.27l-10.39-29.08h6.37l7.36,21.52,7.12-21.52h6.23l-10.41,29.08h-6.27Z"/>
      <path class="cls-5" d="M110.35,135.57l5.55.93c-.71,2.04-1.84,3.59-3.38,4.65-1.54,1.07-3.47,1.6-5.78,1.6-3.66,0-6.37-1.2-8.13-3.59-1.39-1.92-2.08-4.34-2.08-7.26,0-3.49.91-6.22,2.74-8.2,1.83-1.98,4.13-2.96,6.92-2.96,3.13,0,5.61,1.03,7.42,3.1,1.81,2.07,2.68,5.24,2.6,9.51h-13.96c.04,1.65.49,2.94,1.35,3.86.86.92,1.93,1.38,3.21,1.38.87,0,1.61-.24,2.2-.71.59-.48,1.04-1.24,1.35-2.3ZM110.67,129.94c-.04-1.61-.46-2.84-1.25-3.68-.79-.84-1.76-1.26-2.9-1.26-1.22,0-2.22.44-3.01,1.33-.79.89-1.18,2.09-1.17,3.61h8.33Z"/>
      <path class="cls-5" d="M126.08,142.27h-5.57v-21.07h5.18v3c.89-1.42,1.68-2.35,2.39-2.8.71-.45,1.51-.67,2.41-.67,1.27,0,2.49.35,3.67,1.05l-1.73,4.86c-.94-.61-1.81-.91-2.62-.91s-1.44.21-1.98.64c-.54.43-.97,1.21-1.28,2.33-.31,1.12-.47,3.48-.47,7.06v6.51Z"/>
      <path class="cls-5" d="M136.55,118.35v-5.16h5.57v5.16h-5.57ZM136.55,142.27v-21.07h5.57v21.07h-5.57Z"/>
      <path class="cls-5" d="M145.4,121.21h3.09v-1.59c0-1.77.19-3.09.57-3.97s1.07-1.58,2.08-2.13c1.01-.55,2.29-.82,3.84-.82s3.14.24,4.66.71l-.75,3.89c-.89-.21-1.74-.32-2.56-.32s-1.38.19-1.74.57-.53,1.1-.53,2.17v1.49h4.17v4.38h-4.17v16.68h-5.57v-16.68h-3.09v-4.38Z"/>
      <path class="cls-5" d="M158.73,121.21h5.93l5.04,14.96,4.92-14.96h5.77l-7.44,20.27-2.33,6.67c-.49,1.23-.96,2.17-1.4,2.82-.44.65-.95,1.17-1.53,1.58s-1.28.72-2.12.94-1.79.34-2.85.34-2.12-.11-3.15-.34l-.5-4.36c.87.17,1.66.26,2.36.26,1.3,0,2.25-.38,2.88-1.14.62-.76,1.1-1.73,1.43-2.91l-7.01-24.12Z"/>
    </g>
    <text class="cls-8" transform="translate(8.51 153.82)"><tspan x="0" y="0">Secure Identity &amp; </tspan><tspan class="cls-9" x="84.47" y="0">V</tspan><tspan x="90.77" y="0">erification...</tspan></text>
  </g>
</svg>